<?xml version="1.0" encoding="utf-8"?>
<!-- Generator: Adobe Illustrator 26.0.3, SVG Export Plug-In . SVG Version: 6.00 Build 0)  -->
<svg version="1.1" id="Layer_1" xmlns="http://www.w3.org/2000/svg" xmlns:xlink="http://www.w3.org/1999/xlink" x="0px" y="0px"
	 viewBox="0 0 853.9 229.2" style="enable-background:new 0 0 853.9 229.2;" xml:space="preserve">
<style type="text/css">
	.st0{fill:#FFFFFF;}
</style>
<g>
	<path class="st0" d="M51.9,15.9c0-0.6,0-1.1,0-1.7c0-2.5-3.8-3.1-4.4-0.6c-2,8.9-1.7,18.5-2.2,27.6c-0.5,9.8-1,19.6-1.5,29.4
		c-1,19.5-2.1,39-2.6,58.5c-0.1,6.5,0.7,26.4-8.6,27.5c-3.1,0.4-6.2-2.2-8.7-3.8c-4.1-2.7-8.3-5.9-11.3-9.8
		c-1.7-2.2-2.6-3.6,0.5-4.2c1.6-0.3,5.5-0.5,7.9-0.6c11-0.6,22-0.9,33-1.3c14.8-0.4,29.6-0.9,44.4-1.6c14.3-0.6,28.8-0.7,42.9-3.1
		c2.6-0.4,1.7-4.1-0.6-4.3c-14.7-1.3-29.5-0.3-44.2-0.1c-14.7,0.2-29.4,0.5-44.2,0.9c-10.8,0.3-21.5,0.6-32.3,1.2
		c-5.3,0.3-13,0.1-16.1,5.3c-4.6,7.6,4,15.5,9.3,19.9c5.6,4.7,13.7,11.3,21.6,9.4c10.3-2.5,12.8-13.9,13.8-23
		c1.7-15.3,1-31.1,1.6-46.5c0.5-13.9,1.1-27.8,1.7-41.7c0.5-12.9,2.1-27.1-0.1-39.9c-1.4,0.6-2.7,1.1-4.1,1.7c0.3,0.5,0.5,1,0.8,1.4
		C49.4,18.4,51.8,17.7,51.9,15.9L51.9,15.9z"/>
</g>
<g>
	<path class="st0" d="M139,115.9c-1.8,6.7-5.9,16.6-1.3,23c2.5,3.5,7.2,2.5,10,0.1c6-5.1,8.9-13.2,15.7-17.4
		c-1.2-0.4-2.4-0.7-3.6-1.1c3,5.3,4.4,12.4,12.3,11.5c6.1-0.7,13.4-5.2,16.5-10.5c0.8-1.4-0.6-2.9-2.1-2.2c-3.2,1.5-5.8,4.2-8.8,6.1
		c-2.5,1.6-5.3,2.7-8.3,2c-3.7-0.8-4.2-5.7-4.9-8.7c-0.3-1.3-1.8-2.4-3.2-2c-4.3,1.3-7.3,3.8-10.3,7.1c-1.8,2-3.5,4.1-5.4,6.1
		c-0.9,0.9-1.8,1.7-2.9,2.3c-1.6,1.1,1.5,0.1,1.9,1.4c-1.7-5.2,0.8-12,0.1-17.5C144.7,112.9,139.8,113,139,115.9L139,115.9z"/>
</g>
<g>
	<path class="st0" d="M204.8,113.9c-6.4-3.7-15.5-1.9-20.4,3.6c-5.5,6.2-1.8,14.5,5.3,17c7.3,2.7,16.8,0.1,23.6-3
		c9-4,21.4-11.1,24.8-21.1c0.6-1.8-1.6-3-2.9-1.9c-9.8,8.2-19.1,17.1-32.3,19.5c-3.7,0.7-12.4,1.8-13.7-3.1
		c-1.4-5.4,10.2-6.8,13.4-6.2C205.4,119.3,207.8,115.6,204.8,113.9L204.8,113.9z"/>
</g>
<g>
	<path class="st0" d="M234.7,109.6c-3.4,5.6-6.2,15.9-2,21.8c2.7,3.9,7.8,2.8,11.6,1.5c5.6-2,10.8-5.4,15.6-8.7
		c2.5-1.7,8.9-5.1,8.9-8.7c0-1.3-0.9-2.1-2.1-2.2c-2.2-0.3-4.3,2.1-5.9,3.2c-3.6,2.6-7.3,5-11.1,7.3c-3.3,1.9-6.8,3.7-10.5,4.5
		c-5,1-1.3-14.7-1.3-17.6C237.8,109,235.6,108.1,234.7,109.6L234.7,109.6z"/>
</g>
<g>
	<path class="st0" d="M278.8,112.6c-12.2-11.4-31.3,16.1-19.8,22.9c7.6,4.5,14.2-11.2,18.8-8.4c7.2,4.4,16.7-2.7,23.7-4.3
		c-1.1-1.6-2.2-3.2-3.2-4.7c-2.5,5.3-5.2,10.2-5.3,16.2c0,2,1.7,3.6,3.6,3.1c4-1,6.6-5.3,9.6-8.1c4.2-4.1,8.4-9.6,13.6-12.4
		c-1.2-0.8-2.3-1.5-3.5-2.3c0.2,7.8,1,15.8,8.7,19.2c6.8,3,16.5-3.7,20.6-8.8c1.5-1.9-1.1-3.7-2.8-3.1c-4.7,1.9-8.3,5.5-13.3,6.7
		c-7.7,1.9-7.8-9.6-8.6-14.5c-0.3-1.9-2.6-2.4-3.9-1.2c-3.5,3.1-7,6.1-10.4,9.5c-3,2.9-7.2,8.5-11.4,9c1.2,1,2.4,2.1,3.6,3.1
		c0.7-5,3-9.3,4.8-13.8c0.9-2.2-1.5-4.6-3.6-4c-5.4,1.6-10.1,4.8-15.3,6.8c-4.1,1.6-6.8-3.6-10.6-1.7c-1.9,0.9-3.3,2.4-4.8,4
		c-0.5,0.6-7.5,5.5-6.7,2.4c1.1-4.2,7.2-14,12.2-10.7C277.8,119.2,281.4,115,278.8,112.6L278.8,112.6z"/>
</g>
<g>
	<path class="st0" d="M347.9,116.3c-4.7,4.2-11.1,11.7-7.1,18.3c3.8,6.3,13.1,3.9,18.4,1.6c5.3-2.3,14.6-7.2,10.8-14.6
		c-2.8-5.4-16.4-10.7-20.3-4.6c-0.9,1.4-0.1,3.1,1.3,3.7c1.6,0.7,3.2,0.4,5,0.5c2.4,0.1,4.9,1.1,6.9,2.3c3.4,1.9,0,3.5-2,4.6
		c-1.7,1-3.6,1.8-5.4,2.4c-2,0.7-7.4,2.3-8.9-0.1c-1.5-2.3,4.4-8.7,5.4-10.7C353.2,117,350.3,114.2,347.9,116.3L347.9,116.3z"/>
</g>
<g>
	<path class="st0" d="M238.7,99.9c-1.4,0.6,0.6-0.2,0.5-0.1c0.6-0.2,1.1-0.7,1.4-1.3c0.9-1.7,0.3-4-1.7-4.7c-1.3-0.4-2.8,0-3.8,1
		s-1.3,2.5-0.6,3.8C235.3,100.2,237.1,100.6,238.7,99.9L238.7,99.9z"/>
</g>
<g>
	<path class="st0" d="M487.7,70.8c3.4-4,3.8-9.7,4.7-14.6c1.7-9.5,2.4-19.4,2.3-29c-0.2-11.6-3.2-25.4-16.7-27.1
		c-12.6-1.6-23.1,12.1-30,20.6c-10.7,13.3-20.4,27.1-28.4,42.2c-11.4,21.5-20.7,46.9-21.6,71.5c-0.3,9.4,1.4,19.4,8.2,26.3
		c9.2,9.4,23.8,7,34.7,2.5c14.3-6,27.8-15.3,40.7-23.8c7.1-4.8,14.1-9.8,20.9-15.1c3.6-2.8,7.1-5.7,10.6-8.5
		c3.2-2.7,6.9-4.6,10.1-7.4c-3.4-1.4-6.9-2.9-10.3-4.3c-0.5,20.2-2.5,40.5-4.6,60.6c-1.1,10.4-2.8,20.8-4.9,31
		c-1.8,8.7-3,20-8.2,27.3c2.4,0,4.8,0,7.2,0c-3.1-4.5-5.4-9.4-8.3-14s-6.8-8.5-9.9-13c-8.6-12.5,0.6-24.4,9.3-33.8
		c18.4-19.9,41-33,63.2-47.9c1.8-1.2,0.7-4.6-1.6-3.8c-26.4,9.9-51.5,30.1-70.2,51.1c-8,9-14.5,20.5-10.5,32.8
		c2,6.1,6.6,11,10.3,16.1c4.2,5.6,6.7,12.2,11.2,17.7c1.8,2.2,5.3,1.3,6.6-0.8c4.8-7.8,6.3-18.2,8.3-27.1c2.4-10.6,4.2-21.3,5.7-32
		c3-21.3,6-42.7,8.6-64c0.9-7.4-9.6-7.3-11.9-1.6c-3.3,8-12.8,14.1-19.3,19.4c-7.3,5.9-15.2,11.3-23.2,16.4
		c-13.7,9-30.6,22.1-47.6,22.2c-26.6,0.1-17.2-39.5-13.1-54.4c8.5-31,24.8-58.1,44.9-82.9C459.3,18,464,12.7,470,9.1
		c8.6-5.2,14.9,0.6,16.9,8.9s1,17.6,0.3,26c-0.3,4.3-1.1,8.5-1.5,12.8c-0.3,3.5-0.1,7.9-2,10.9C481.6,70,485.7,73.3,487.7,70.8
		L487.7,70.8z"/>
</g>
<g>
	<path class="st0" d="M552.9,111.7c-3.1,4.7-4,13.9-4.1,19.4c-0.1,6.8,4.5,9.8,10.7,8.5c6.1-1.2,11.9-6.4,16.4-10.3
		c4.2-3.6,11.1-8.6,12.1-14.4c0.3-1.8-1.3-3-3-2.3c-3.5,1.6-6.3,4.8-9.1,7.3c-4.3,3.9-8.9,7.5-14,10.3c-1.2,0.7-3.2,1.9-4.6,1.3
		c1.5,0.6,1,1.8,1-0.4c0-1.2,0.2-2.5,0.3-3.7c0.6-4.4,3.3-10.2,2.1-14.7C559.8,109,554.9,108.6,552.9,111.7L552.9,111.7z"/>
</g>
<g>
	<path class="st0" d="M581.9,112.9c-2.8,5-4.5,12.5-4.3,18.2c0.1,2.9,1.7,6.1,4.8,7c3.4,0.9,6.9-0.8,9.7-2.6
		c5.8-3.7,13.2-11.6,10.9-19.1c-2.2-7.2-16.3-8.8-21.7-5c-2.9,2-1,5.9,2.3,5.4c3-0.4,14.4-3.2,14.6,2.3c0.2,5.1-7.1,10.5-11.3,11.9
		c-0.6,0.2-1.3,0.2-2,0.1c0.7,0.1,0.6,1,0.3-0.4c-0.4-1.6,0-3.7,0.3-5.3c0.6-3.9,2.2-8.8-0.1-12.4
		C584.5,111.7,582.7,111.6,581.9,112.9L581.9,112.9z"/>
</g>
<g>
	<path class="st0" d="M588.8,112c13.3,12.2,27-6.8,30.9-18.7c-1.4-0.4-2.8-0.8-4.2-1.2c-1.1,6.2-3.6,15.1,4.3,17.4
		c2,0.6,3.9,1.4,5.7,2.4c0.1-0.9,0.1-0.9-0.2,0.2s-0.2,2.3-0.1,3.4c0.4,4.1-0.5,7.9,1,12c6.5,17.9,29.1-5.8,33.2-13.7
		c0.6-1.2-0.7-2.7-1.9-1.9c-5.2,3.5-23.3,24.6-23.8,7.7c-0.1-3.8-1.6-9.1-5.4-11c-2-1-4.1-1.8-6.2-2.6c-5.5-2.3-3.3-7.6-2.4-12.6
		c0.5-2.7-3.3-3.8-4.2-1.2c-3,9.1-13.3,26.5-24.6,17.8C589.4,108.8,587.3,110.7,588.8,112L588.8,112z"/>
</g>
<g>
	<path class="st0" d="M678,110.6c-6.8-7.6-17.6-5-24.6,0.8c-5.3,4.5-10.8,15.8-4,21.2c5.6,4.4,13-0.2,17.6-3.8
		c5.4-4.3,12.3-9.9,14.9-16.6c0.4-1-0.8-2.3-1.9-1.9c-3.4,1.4-5.8,4.2-8.4,6.7c-3.7,3.7-7.6,7.3-12.1,9.9c-0.6,0.4-6.3,3-5.8,0
		c0.4-2.4,2.4-5.1,3.9-6.9c4.4-5.3,10.9-5.8,16.9-3.6C678.1,117.7,680.1,113,678,110.6L678,110.6z"/>
</g>
<g>
	<path class="st0" d="M681.3,66.6c-3.2,2.5-2.6,9-2.8,12.6c-0.4,8.3-1.1,16.6-1.7,24.9c-0.7,9.5-1.6,19.1-2.2,28.6
		c-0.6,8.4-2.7,18.8,0,26.8c0.5,1.4,2.8,2.1,3.5,0.5c3-6.8,2.6-15.2,3.1-22.5c0.7-9.5,1.4-19.1,2.1-28.6c0.6-8.4,0.9-16.8,1.3-25.2
		c0.2-4.7,1.3-11.8-0.2-16.2C683.8,66,682.4,65.8,681.3,66.6L681.3,66.6z"/>
</g>
<g>
	<path class="st0" d="M720.4,113.9c0.3-11.9-18.4-10.9-24.8-5.4c-4.3,3.8-13.4,17.3-7,23c5,4.4,12.6-1.1,16.9-4
		c4.9-3.4,14-9,14.6-15.6c0.1-1.4-1.5-1.9-2.5-1.4c-3.3,1.4-6.2,4.4-8.9,6.7c-3.9,3.2-8.1,6.3-12.6,8.5c-1.7,0.8-3.4,0.2-2.5,1.5
		c-0.1-0.1,1.9-4.8,2.4-5.9c1.8-3.5,4.5-6.5,8.3-7.9c2.6-0.9,8.6-0.6,10.3,2.1C716.3,118,720.3,116.9,720.4,113.9L720.4,113.9z"/>
</g>
<g>
	<path class="st0" d="M716.4,111.6c-0.8,5.1-3.4,11.9-1.1,16.9c2,4.3,6.7,3.7,10.3,2c5.5-2.6,10.2-7.9,14.3-12.2
		c3.6-3.7,7.1-9,11.5-11.8c-1.6-1.2-3.2-2.4-4.7-3.6c-1.5,9.7-6.2,19.2-5.3,29.1c0.2,1.7,1.4,3.6,3.4,3.4
		c11-1.2,16.7-17.9,23.1-25.1c-1.6-0.4-3.2-0.8-4.8-1.3c1.1,7.2-1.4,13.5,4.2,19.3c3.4,3.5,8.6,3.5,13,2.8c9.3-1.5,22-8.9,26.8-17.2
		c1-1.7-1-4-2.8-2.8c-6.3,4.2-12.1,8.9-19,12.2c-3.7,1.7-8.8,3.4-12.8,1.6c-5.8-2.7-3.2-11.6-3.9-16.6c-0.3-2.3-3-4-4.9-2
		c-3.2,3.3-5.7,7.3-8.3,11.1c-2.1,3-6.6,10.8-10.8,11.2c1.1,1.1,2.3,2.3,3.4,3.4c-0.9-9.8,4.5-18.6,4.7-28.3
		c0.1-2.3-2.9-4.3-4.8-2.8c-6.5,4.9-11.5,12-17.3,17.7c-2.8,2.7-6,6.1-9.8,7.1c-0.6,0.2,0.2-12.1,0.1-13.7
		C720.9,109.7,716.8,108.8,716.4,111.6L716.4,111.6z"/>
</g>
<g>
	<path class="st0" d="M804.4,110.7c-2.4,2.9-3.6,7.8-4.3,11.4c-0.7,3.7-0.1,7.8,3.2,10.1c7,4.9,16.7-0.5,22-5.6
		c4.8-4.7,4.9-11.8-1-15.4c-5.2-3.2-16.3-4.5-21.4-0.8c-2.1,1.5-1.2,4.3,1.2,4.6c4.4,0.6,9-0.8,13.6-0.1c4.9,0.7,8.1,3.6,3.9,8
		c-3.1,3.2-10.2,7-14.5,4.6c-4.4-2.5,1.6-12,0.9-15.8C807.6,110.2,805.3,109.6,804.4,110.7L804.4,110.7z"/>
</g>
<g>
	<path class="st0" d="M561.1,91c-1-0.8-2.2-0.9-3.5-0.7c-2.1,0.4-3.1,2.8-2.7,4.7c0.3,1.4,1.4,2.2,2.7,2.7c0.6,0.2,1.3,0.2,1.9,0
		c0.3-0.1,0.6-0.2,0.9-0.4c-0.8,0.3-1.1,0.4-0.8,0.3c-0.3,0-0.7,0.1-1,0.1c0,0,0,0,0.1,0c-0.6-0.2-1.3-0.3-1.9-0.5c0,0,0,0,0.1,0
		c-0.3-0.2-0.5-0.4-0.8-0.6c0.1,0.1,0.2,0.2,0.3,0.4c1.3,1.7,4.1,1.4,5.5,0c0.7-0.7,1.1-1.7,1.1-2.8C563.1,92.9,562.3,91.9,561.1,91
		L561.1,91z"/>
</g>
<g>
	<path class="st0" d="M809.9,113.9c5,1.2,39.3-6.4,39.7-0.1c0.1,1.7,2.4,2.6,3.4,0.9c4.7-8.2-10.4-8.6-14.6-8.5
		c-8.8,0.2-20.3,0.8-28.5,4.1C808.3,110.9,807.9,113.4,809.9,113.9L809.9,113.9z"/>
</g>
</svg>
